<?xml version="1.0" standalone="no"?>
<!DOCTYPE svg PUBLIC "-//W3C//DTD SVG 20010904//EN"
 "http://www.w3.org/TR/2001/REC-SVG-20010904/DTD/svg10.dtd">
<svg version="1.0" xmlns="http://www.w3.org/2000/svg"
 width="1772.000000pt" height="1772.000000pt" viewBox="0 0 1772.000000 1772.000000"
 preserveAspectRatio="xMidYMid meet">
<metadata>
Created by potrace 1.14, written by Peter Selinger 2001-2017
</metadata>
<g transform="translate(0.000000,1772.000000) scale(0.100000,-0.100000)"
fill="#000000" stroke="none">
<path d="M0 8860 l0 -8860 8860 0 8860 0 0 8860 0 8860 -8860 0 -8860 0 0
-8860z m4230 2675 c16 -9 32 -25 34 -38 2 -12 12 -515 21 -1117 9 -602 20
-1306 25 -1565 5 -258 10 -536 10 -617 l0 -147 -30 -16 c-23 -12 -67 -15 -208
-15 -157 0 -183 2 -201 18 -22 18 -23 59 -56 2737 -3 248 -8 514 -11 592 -8
193 -20 183 211 183 138 0 182 -3 205 -15z m2038 -945 c362 -40 587 -199 657
-465 21 -83 23 -125 46 -1239 20 -951 20 -990 3 -1003 -22 -16 -395 -19 -425
-3 -12 7 -19 21 -19 39 0 15 -3 49 -6 74 l-7 46 -89 -45 c-196 -98 -357 -131
-557 -114 -243 22 -396 84 -527 214 -66 65 -89 97 -122 166 -70 147 -96 317
-80 519 36 456 365 759 858 788 128 7 296 -26 464 -93 18 -7 19 -2 13 172 -9
257 -34 377 -98 470 -59 86 -181 130 -334 121 -264 -16 -407 -179 -422 -484
l-6 -113 -240 0 -240 0 6 113 c11 220 95 397 268 563 92 87 145 124 262 179
189 90 372 119 595 95z m7150 0 c307 -33 523 -157 615 -351 63 -135 64 -137
77 -769 36 -1705 35 -1572 15 -1587 -26 -18 -403 -19 -428 0 -12 9 -17 30 -18
85 -1 39 -4 72 -6 72 -2 0 -44 -20 -94 -45 -196 -99 -357 -132 -550 -115 -400
35 -622 203 -715 540 -27 96 -27 395 0 500 55 215 163 374 331 485 141 94 311
149 498 161 123 8 231 -10 386 -62 56 -20 104 -34 106 -32 1 2 -2 87 -6 189
-14 325 -58 457 -175 525 -174 102 -465 52 -574 -98 -72 -98 -95 -174 -106
-338 l-7 -110 -236 2 -236 3 -3 58 c-7 141 49 326 139 462 55 82 177 202 262
258 161 107 370 171 570 176 32 0 101 -4 155 -9z m-5082 -70 c8 -17 15 -231
24 -665 19 -1021 27 -1284 43 -1340 32 -115 88 -180 180 -211 75 -25 240 -15
332 20 125 47 211 129 257 243 22 56 23 67 20 308 -1 138 -9 529 -17 870 -18
763 -18 710 1 729 22 22 390 24 420 2 18 -14 20 -44 35 -728 10 -392 23 -944
29 -1227 l13 -515 -23 -18 c-20 -16 -43 -18 -205 -18 -232 0 -226 -4 -233 133
l-5 96 -64 -59 c-159 -146 -414 -214 -660 -176 -180 27 -307 89 -410 200 -70
74 -104 136 -133 236 -20 70 -22 109 -31 555 -20 1093 -27 1549 -22 1561 10
26 62 33 248 31 l190 -2 11 -25z m3413 -44 c7 -9 12 -68 14 -162 l2 -149 -67
-7 c-236 -23 -472 -200 -550 -413 -31 -84 -33 -204 -18 -1068 9 -559 9 -721 0
-733 -10 -11 -49 -14 -205 -14 -173 0 -195 2 -216 19 l-23 18 -8 614 c-4 338
-12 893 -17 1234 -7 519 -6 624 6 643 13 22 17 22 196 22 243 0 231 6 235
-139 l3 -113 53 50 c104 98 262 180 388 201 87 14 194 13 207 -3z m-3132
-2711 c69 -16 177 -62 223 -95 33 -23 40 -17 13 12 -29 32 3 19 65 -27 77 -56
135 -129 183 -230 39 -81 104 -289 95 -303 -3 -5 -14 -51 -24 -103 -40 -193
-115 -329 -231 -420 -49 -40 -55 -41 -66 -25 -12 16 -17 15 -68 -19 -89 -59
-185 -88 -308 -93 -126 -5 -192 7 -285 52 -146 70 -263 217 -308 386 -4 14 9
-6 27 -45 19 -38 42 -79 51 -90 9 -11 3 8 -14 42 -83 171 -83 422 0 610 28 64
17 65 -19 1 -34 -59 -39 -60 -15 -2 64 153 238 306 397 349 69 18 207 18 284
0z m-3824 -87 c15 -15 37 -74 66 -173 24 -82 88 -302 142 -489 63 -218 97
-347 93 -363 -7 -28 -32 -43 -72 -43 -43 0 -58 24 -89 140 l-28 105 -156 3
-156 2 -28 -107 c-33 -129 -44 -145 -99 -141 -32 2 -44 9 -55 29 -14 25 -7 55
128 520 149 519 157 539 212 539 11 0 30 -10 42 -22z m558 3 l24 -19 3 -489
c1 -268 0 -498 -3 -510 -12 -51 -78 -71 -117 -36 -17 15 -18 45 -18 524 l0
508 22 21 c27 25 59 26 89 1z m361 0 c15 -13 82 -144 188 -375 91 -196 167
-356 170 -356 3 0 2 39 -2 88 -3 48 -7 205 -7 350 l-1 263 25 24 c13 14 34 25
45 25 12 0 32 -11 45 -25 l25 -24 0 -491 c0 -558 1 -549 -77 -550 -21 0 -37 8
-50 23 -10 13 -90 180 -178 370 -88 191 -162 347 -165 347 -3 0 -2 -51 2 -112
3 -62 7 -220 7 -350 1 -225 0 -239 -19 -258 -12 -12 -33 -20 -54 -20 -68 0
-66 -14 -66 543 l0 498 25 24 c29 30 54 32 87 6z m1708 -18 c72 -37 112 -93
118 -166 5 -67 -13 -90 -67 -85 -33 3 -38 8 -63 59 -36 75 -67 99 -130 99 -85
0 -138 -51 -138 -132 0 -64 37 -110 194 -239 133 -110 151 -128 177 -183 24
-51 29 -74 29 -136 -1 -116 -45 -196 -135 -243 -56 -29 -185 -35 -253 -13 -90
30 -161 126 -177 238 -6 42 -4 50 18 72 48 48 97 24 117 -56 26 -106 68 -148
148 -148 99 0 162 71 147 165 -9 65 -38 99 -188 225 -151 127 -181 161 -202
234 -19 63 -19 99 0 164 47 158 241 228 405 145z m-3135 -15 c161 -85 214
-291 114 -441 -55 -84 -141 -126 -276 -134 l-83 -6 0 -199 c0 -237 -6 -258
-77 -258 -64 0 -63 -10 -63 539 0 455 1 496 17 514 16 17 30 18 168 15 139 -3
154 -5 200 -30z m2619 16 c21 -20 20 -63 -1 -86 -13 -15 -32 -18 -115 -18
l-98 0 0 -455 c0 -442 -1 -456 -20 -475 -28 -28 -84 -27 -104 2 -14 20 -16 82
-16 475 l0 453 -98 0 c-112 0 -135 10 -135 58 0 62 -2 62 299 62 234 0 275 -2
288 -16z m3026 -22 c65 -32 104 -80 122 -145 17 -66 -1 -101 -56 -105 -46 -4
-62 9 -77 59 -7 21 -25 51 -41 66 -25 24 -37 28 -88 28 -68 0 -105 -21 -132
-76 -16 -30 -18 -68 -18 -339 0 -333 3 -350 61 -393 69 -50 184 -22 219 55 11
24 20 63 20 87 0 55 21 81 65 81 51 0 70 -30 69 -109 -1 -78 -19 -124 -68
-179 -50 -55 -122 -84 -210 -85 -115 -1 -199 38 -251 118 -43 67 -46 96 -43
448 l3 332 30 53 c71 129 251 177 395 104z m2034 16 c21 -19 48 -103 165 -509
78 -267 141 -493 141 -501 0 -31 -35 -61 -70 -61 -47 0 -63 25 -96 148 l-29
105 -154 -2 -155 -3 -27 -100 c-35 -130 -36 -131 -68 -145 -36 -15 -78 1 -91
35 -14 37 268 1011 301 1038 29 23 53 22 83 -5z m2046 -16 c64 -32 108 -89
120 -153 12 -63 -4 -93 -53 -97 -47 -4 -60 6 -77 58 -8 23 -29 55 -48 72 -32
28 -40 30 -93 26 -44 -3 -65 -10 -84 -28 -53 -50 -57 -142 -8 -201 14 -17 90
-84 168 -149 124 -103 146 -126 170 -176 35 -73 38 -187 7 -256 -59 -134 -236
-192 -388 -128 -77 33 -129 105 -153 212 -19 83 24 136 85 107 23 -12 32 -26
46 -78 30 -113 71 -147 165 -139 94 8 143 69 129 162 -10 66 -38 99 -182 221
-145 122 -177 155 -200 212 -36 84 -12 226 49 291 76 82 233 102 347 44z
m-3385 -17 c66 -34 125 -101 144 -165 6 -20 11 -71 11 -111 0 -96 -28 -157
-100 -222 l-52 -47 107 -212 c117 -230 121 -248 62 -276 -55 -26 -71 -7 -196
236 l-116 222 -57 0 -58 0 -2 -216 -3 -217 -27 -20 c-23 -17 -31 -18 -57 -8
-16 7 -34 25 -40 40 -8 18 -11 171 -9 508 3 463 4 482 23 503 19 21 26 22 166
18 139 -3 148 -4 204 -33z m849 19 c9 -8 16 -28 16 -44 0 -56 -14 -60 -201
-60 l-169 0 0 -170 0 -170 127 0 c143 0 163 -8 163 -66 0 -54 -25 -64 -167
-64 l-123 0 0 -169 0 -170 171 -3 c155 -3 172 -5 185 -22 19 -26 18 -65 -3
-88 -15 -16 -36 -18 -235 -18 -205 0 -219 1 -238 20 -19 19 -20 33 -20 510 0
477 1 491 20 510 19 19 33 20 239 20 186 0 222 -2 235 -16z m1340 0 c9 -8 16
-28 16 -44 0 -51 -20 -60 -131 -60 l-99 0 0 -454 c0 -426 -1 -455 -18 -477
-26 -31 -78 -31 -104 0 -17 22 -18 51 -18 477 l0 454 -99 0 c-111 0 -131 9
-131 60 0 59 5 60 300 60 231 0 271 -2 284 -16z m636 -16 c13 -25 13 -31 0
-55 l-16 -28 -174 -5 -175 -5 -3 -167 -2 -168 129 0 c121 0 132 -2 151 -22 27
-29 25 -54 -5 -83 -23 -24 -30 -25 -150 -25 l-125 0 0 -169 0 -170 171 -3
c166 -3 171 -4 190 -27 24 -30 24 -56 -1 -81 -19 -19 -33 -20 -237 -20 -120 0
-223 4 -229 8 -32 21 -34 52 -34 522 0 470 2 501 34 522 6 5 112 7 236 5 l224
-2 16 -27z"/>
<path d="M5931 9215 c-231 -65 -362 -264 -348 -530 14 -268 173 -462 408 -495
91 -13 193 0 281 35 78 31 186 111 219 162 l25 38 -8 300 c-8 263 -11 303 -27
325 -29 41 -156 126 -223 150 -83 29 -249 37 -327 15z"/>
<path d="M13101 9219 c-75 -15 -168 -65 -224 -121 -194 -193 -194 -566 -1
-768 99 -104 193 -144 339 -143 156 0 284 52 394 161 l63 64 -6 106 c-3 59 -9
201 -12 315 l-6 208 -57 50 c-63 57 -170 112 -249 128 -61 13 -177 13 -241 0z"/>
<path d="M8769 7544 c11 -14 31 -34 45 -45 16 -13 32 -43 45 -84 10 -36 31
-79 47 -97 l27 -33 -7 30 c-15 62 -66 156 -112 205 -49 52 -81 69 -45 24z"/>
<path d="M8450 7413 c-8 -3 -25 -15 -37 -26 -28 -25 -31 -92 -8 -157 15 -41
14 -42 -18 -82 -28 -35 -32 -48 -35 -112 -4 -70 -3 -73 28 -104 27 -28 38 -32
83 -32 32 0 66 7 87 19 31 16 37 17 57 4 37 -24 61 9 27 38 -17 14 -15 28 9
94 17 45 13 65 -13 65 -11 0 -22 -12 -29 -30 -14 -42 -32 -38 -69 15 -36 51
-39 67 -16 86 70 58 52 230 -23 228 -16 0 -35 -3 -43 -6z m54 -84 c18 -52 -17
-106 -50 -78 -17 14 -18 81 -2 97 19 19 41 10 52 -19z m-9 -270 c47 -68 48
-72 30 -85 -25 -19 -75 -18 -103 2 -17 12 -22 25 -22 62 0 44 20 92 39 92 4 0
29 -32 56 -71z"/>
<path d="M9003 7307 c3 -27 10 -54 17 -60 9 -9 10 -2 5 33 -11 66 -27 87 -22
27z"/>
<path d="M8924 7269 c-3 -6 -1 -16 5 -22 8 -8 11 -5 11 11 0 24 -5 28 -16 11z"/>
<path d="M9021 7043 c0 -36 3 -43 9 -28 12 28 12 75 0 75 -5 0 -10 -21 -9 -47z"/>
<path d="M8916 6935 c-9 -26 -7 -32 5 -12 6 10 9 21 6 23 -2 3 -7 -2 -11 -11z"/>
<path d="M8872 6872 c-12 -12 -22 -32 -22 -44 0 -14 -16 -37 -42 -59 -33 -28
-40 -40 -32 -49 9 -9 20 -3 47 27 62 66 107 183 49 125z"/>
<path d="M8200 6553 c0 -13 115 -53 165 -58 42 -4 54 -2 40 4 -11 5 -31 10
-45 11 -14 0 -55 11 -92 24 -38 12 -68 21 -68 19z"/>
<path d="M4736 7403 c-4 -21 -29 -122 -57 -225 -27 -103 -49 -190 -49 -193 0
-6 225 -7 232 0 2 3 -15 78 -39 167 -24 90 -49 191 -56 226 -6 34 -15 62 -18
62 -4 0 -10 -17 -13 -37z"/>
<path d="M4040 7380 l0 -180 67 0 c117 0 185 52 199 151 17 127 -66 209 -213
209 l-53 0 0 -180z"/>
<path d="M11916 7410 c-2 -8 -10 -40 -16 -70 -12 -51 -83 -321 -96 -362 -5
-17 3 -18 116 -18 122 0 122 0 116 23 -4 12 -31 116 -61 232 -29 115 -56 203
-59 195z"/>
<path d="M10378 7534 c-5 -4 -8 -85 -8 -181 l0 -173 70 0 c115 0 179 43 199
133 20 87 -12 166 -82 200 -38 19 -167 35 -179 21z"/>
</g>
</svg>
